<?xml version="1.0" standalone="no"?>
<!DOCTYPE svg PUBLIC "-//W3C//DTD SVG 20010904//EN"
 "http://www.w3.org/TR/2001/REC-SVG-20010904/DTD/svg10.dtd">
<svg version="1.0" xmlns="http://www.w3.org/2000/svg"
 width="512.000000pt" height="512.000000pt" viewBox="0 0 512.000000 512.000000"
 preserveAspectRatio="xMidYMid meet">
<metadata>
Created by potrace 1.14, written by Peter Selinger 2001-2017
</metadata>
<g transform="translate(0.000000,512.000000) scale(0.100000,-0.100000)"
fill="#000000" stroke="none">
<path d="M690 2550 l0 -1430 290 0 290 0 0 539 0 538 383 6 c431 6 555 18 693
68 153 56 303 172 393 302 43 63 97 180 111 242 19 81 19 81 49 34 40 -63 141
-153 223 -198 l71 -39 -37 -16 c-131 -55 -279 -196 -345 -329 -63 -128 -83
-218 -85 -377 -1 -171 18 -259 86 -400 45 -92 61 -115 142 -195 122 -120 260
-199 421 -240 155 -39 398 -44 551 -11 272 58 488 227 598 468 53 115 68 186
73 355 7 184 -8 263 -72 391 -70 139 -166 234 -324 320 l-73 40 63 33 c82 43
203 163 245 244 60 114 69 156 69 315 0 133 -2 152 -29 234 -75 228 -263 397
-521 468 -72 20 -104 22 -305 22 -201 0 -234 -3 -305 -22 -219 -61 -381 -188
-474 -373 l-39 -77 -40 82 c-77 152 -197 272 -347 345 -170 83 -263 91 -1097
91 l-658 0 0 -1430z m3118 930 c68 -30 144 -112 168 -182 24 -70 24 -196 1
-265 -48 -139 -193 -224 -360 -210 -185 16 -297 145 -297 342 0 221 139 353
361 341 48 -2 94 -12 127 -26z m-1845 1 c132 -29 241 -113 294 -226 25 -53 28
-72 28 -160 0 -91 -3 -106 -31 -165 -54 -113 -155 -192 -284 -220 -60 -13
-369 -29 -572 -30 l-128 0 0 411 0 412 323 -6 c177 -3 344 -10 370 -16z m1850
-1131 c68 -26 162 -111 196 -177 76 -151 65 -406 -24 -540 -134 -201 -416
-228 -589 -56 -139 138 -174 397 -81 584 56 111 131 177 234 206 65 18 192 10
264 -17z"/>
</g>
</svg>
